<svg width="19" height="24" viewBox="0 0 19 24" fill="none" xmlns="http://www.w3.org/2000/svg">
<path d="M2.131 23.248C1.61433 23.248 1.19067 23.1137 0.86 22.845C0.529333 22.5557 0.333 22.2043 0.271 21.791C0.229667 21.357 0.374333 20.923 0.705 20.489L7.804 11.034V12.739L1.046 3.687C0.715333 3.23233 0.570667 2.79833 0.612 2.385C0.653333 1.951 0.839333 1.59967 1.17 1.331C1.50067 1.04166 1.914 0.896998 2.41 0.896998C2.82333 0.896998 3.185 1.00033 3.495 1.207C3.82567 1.393 4.15633 1.71333 4.487 2.168L10.067 9.856H8.796L14.345 2.168C14.6757 1.71333 14.996 1.393 15.306 1.207C15.6367 1.00033 16.019 0.896998 16.453 0.896998C16.9697 0.896998 17.3933 1.03133 17.724 1.3C18.0547 1.56867 18.2407 1.92 18.282 2.354C18.3233 2.76733 18.1683 3.21167 17.817 3.687L11.059 12.739V11.034L18.127 20.489C18.4577 20.923 18.6023 21.357 18.561 21.791C18.5197 22.2043 18.3337 22.5557 18.003 22.845C17.6723 23.1137 17.2383 23.248 16.701 23.248C16.3083 23.248 15.9467 23.1447 15.616 22.938C15.306 22.7313 14.9753 22.4007 14.624 21.946L8.734 13.886H10.098L4.239 21.946C3.90833 22.4007 3.57767 22.7313 3.247 22.938C2.91633 23.1447 2.54433 23.248 2.131 23.248Z" fill="#B7B7B7"/>
</svg>
