<svg width="33" height="45" viewBox="0 0 33 45" fill="none" xmlns="http://www.w3.org/2000/svg">
<path d="M19.25 11.9531V0H2.0625C0.919531 0 0 0.94043 0 2.10938V42.8906C0 44.0596 0.919531 45 2.0625 45H30.9375C32.0805 45 33 44.0596 33 42.8906V14.0625H21.3125C20.1781 14.0625 19.25 13.1133 19.25 11.9531ZM5.5 6.32812C5.5 5.93965 5.80766 5.625 6.1875 5.625H13.0625C13.4423 5.625 13.75 5.93965 13.75 6.32812V7.73438C13.75 8.12285 13.4423 8.4375 13.0625 8.4375H6.1875C5.80766 8.4375 5.5 8.12285 5.5 7.73438V6.32812ZM5.5 11.9531C5.5 11.5646 5.80766 11.25 6.1875 11.25H13.0625C13.4423 11.25 13.75 11.5646 13.75 11.9531V13.3594C13.75 13.7479 13.4423 14.0625 13.0625 14.0625H6.1875C5.80766 14.0625 5.5 13.7479 5.5 13.3594V11.9531ZM22.0696 33.75H26.125C26.8847 33.75 27.5 34.3793 27.5 35.1562C27.5 35.9332 26.8847 36.5625 26.125 36.5625H22.0696C20.6559 36.5625 19.3823 35.7592 18.749 34.4654C18.4955 33.9451 18.0537 33.8924 17.875 33.8924C17.6963 33.8924 17.2545 33.9442 17.0139 34.4364L16.3548 35.7847C16.2406 36.0183 16.0651 36.2147 15.8479 36.3519C15.6307 36.4892 15.3803 36.5618 15.125 36.5616C15.0923 36.5616 15.0605 36.5599 15.027 36.5572C14.4727 36.5177 13.9958 36.1397 13.8213 35.6001L12.375 31.1651L11.4632 33.9671C10.957 35.5192 9.53992 36.5625 7.93977 36.5625H6.875C6.11531 36.5625 5.5 35.9332 5.5 35.1562C5.5 34.3793 6.11531 33.75 6.875 33.75H7.93977C8.35484 33.75 8.72266 33.4793 8.85414 33.0768L10.4173 28.2744C10.7009 27.4122 11.4864 26.8321 12.375 26.8321C13.2636 26.8321 14.0491 27.4113 14.3318 28.2744L15.5246 31.9342C17.2236 30.5112 20.1695 31.0816 21.1965 33.1787C21.3701 33.5355 21.7087 33.75 22.0696 33.75ZM32.3984 9.22852L23.9852 0.615234C23.5984 0.219727 23.0742 0 22.5242 0H22V11.25H33V10.7139C33 10.1602 32.7852 9.62402 32.3984 9.22852Z" fill="#D9D9D9"/>
</svg>
