<svg width="44" height="31" viewBox="0 0 44 31" fill="none" xmlns="http://www.w3.org/2000/svg">
<path d="M6.6 13.2857C9.02688 13.2857 11 11.2998 11 8.85714C11 6.41451 9.02688 4.42857 6.6 4.42857C4.17313 4.42857 2.2 6.41451 2.2 8.85714C2.2 11.2998 4.17313 13.2857 6.6 13.2857ZM37.4 13.2857C39.8269 13.2857 41.8 11.2998 41.8 8.85714C41.8 6.41451 39.8269 4.42857 37.4 4.42857C34.9731 4.42857 33 6.41451 33 8.85714C33 11.2998 34.9731 13.2857 37.4 13.2857ZM39.6 15.5H35.2C33.99 15.5 32.8969 15.9913 32.0994 16.7871C34.87 18.3163 36.8363 21.0772 37.2625 24.3571H41.8C43.0169 24.3571 44 23.3676 44 22.1429V19.9286C44 17.4859 42.0269 15.5 39.6 15.5ZM22 15.5C26.2556 15.5 29.7 12.0333 29.7 7.75C29.7 3.46674 26.2556 0 22 0C17.7444 0 14.3 3.46674 14.3 7.75C14.3 12.0333 17.7444 15.5 22 15.5ZM27.28 17.7143H26.7094C25.2794 18.4062 23.6912 18.8214 22 18.8214C20.3088 18.8214 18.7275 18.4062 17.2906 17.7143H16.72C12.3475 17.7143 8.8 21.2848 8.8 25.6857V27.6786C8.8 29.5123 10.2781 31 12.1 31H31.9C33.7219 31 35.2 29.5123 35.2 27.6786V25.6857C35.2 21.2848 31.6525 17.7143 27.28 17.7143ZM11.9006 16.7871C11.1031 15.9913 10.01 15.5 8.8 15.5H4.4C1.97313 15.5 0 17.4859 0 19.9286V22.1429C0 23.3676 0.983125 24.3571 2.2 24.3571H6.73063C7.16375 21.0772 9.13 18.3163 11.9006 16.7871Z" fill="#D9D9D9"/>
</svg>
