<svg width="44" height="37" viewBox="0 0 44 37" fill="none" xmlns="http://www.w3.org/2000/svg">
<path d="M43.0011 8.5707L38.3648 1.08398C37.9505 0.411914 37.2147 0 36.4289 0H7.56831C6.7825 0 6.0467 0.411914 5.63237 1.08398L0.996098 8.5707C-1.39704 12.4369 0.724638 17.8135 5.1966 18.4277C5.51807 18.4711 5.84668 18.4928 6.17529 18.4928C8.28983 18.4928 10.1615 17.5533 11.4473 16.1008C12.7332 17.5533 14.612 18.4928 16.7194 18.4928C18.8339 18.4928 20.7056 17.5533 21.9915 16.1008C23.2773 17.5533 25.1561 18.4928 27.2635 18.4928C29.3781 18.4928 31.2497 17.5533 32.5356 16.1008C33.8286 17.5533 35.7002 18.4928 37.8076 18.4928C38.1434 18.4928 38.4649 18.4711 38.7863 18.4277C43.2726 17.8207 45.4014 12.4441 43.0011 8.5707ZM37.8219 20.8125C37.1075 20.8125 36.4003 20.7041 35.7145 20.5379V27.75H8.28268V20.5379C7.59689 20.6969 6.88966 20.8125 6.17529 20.8125C5.74666 20.8125 5.3109 20.7836 4.88942 20.7258C4.48937 20.668 4.09647 20.574 3.71785 20.4656V34.6875C3.71785 35.9666 4.7394 37 6.00384 37H38.0077C39.2721 37 40.2936 35.9666 40.2936 34.6875V20.4656C39.9079 20.5813 39.5221 20.6752 39.1221 20.7258C38.6863 20.7836 38.2577 20.8125 37.8219 20.8125Z" fill="#D9D9D9"/>
</svg>
