<svg width="44" height="39" viewBox="0 0 44 39" fill="none" xmlns="http://www.w3.org/2000/svg">
<path d="M42.625 30.6429H13.75V29.25C13.75 28.4839 13.1313 27.8571 12.375 27.8571H9.625C8.86875 27.8571 8.25 28.4839 8.25 29.25V30.6429H1.375C0.61875 30.6429 0 31.2696 0 32.0357V34.8214C0 35.5875 0.61875 36.2143 1.375 36.2143H8.25V37.6071C8.25 38.3732 8.86875 39 9.625 39H12.375C13.1313 39 13.75 38.3732 13.75 37.6071V36.2143H42.625C43.3812 36.2143 44 35.5875 44 34.8214V32.0357C44 31.2696 43.3812 30.6429 42.625 30.6429ZM42.625 16.7143H35.75V15.3214C35.75 14.5554 35.1312 13.9286 34.375 13.9286H31.625C30.8687 13.9286 30.25 14.5554 30.25 15.3214V16.7143H1.375C0.61875 16.7143 0 17.3411 0 18.1071V20.8929C0 21.6589 0.61875 22.2857 1.375 22.2857H30.25V23.6786C30.25 24.4446 30.8687 25.0714 31.625 25.0714H34.375C35.1312 25.0714 35.75 24.4446 35.75 23.6786V22.2857H42.625C43.3812 22.2857 44 21.6589 44 20.8929V18.1071C44 17.3411 43.3812 16.7143 42.625 16.7143ZM42.625 2.78571H24.75V1.39286C24.75 0.626786 24.1313 0 23.375 0H20.625C19.8687 0 19.25 0.626786 19.25 1.39286V2.78571H1.375C0.61875 2.78571 0 3.4125 0 4.17857V6.96429C0 7.73036 0.61875 8.35714 1.375 8.35714H19.25V9.75C19.25 10.5161 19.8687 11.1429 20.625 11.1429H23.375C24.1313 11.1429 24.75 10.5161 24.75 9.75V8.35714H42.625C43.3812 8.35714 44 7.73036 44 6.96429V4.17857C44 3.4125 43.3812 2.78571 42.625 2.78571Z" fill="#D9D9D9"/>
</svg>
