<svg width="44" height="40" viewBox="0 0 44 40" fill="none" xmlns="http://www.w3.org/2000/svg">
<path d="M42.7778 22.5H36.6667V30L34.2222 28.3359L31.7778 30V22.5H25.6667C24.9944 22.5 24.4444 23.0625 24.4444 23.75V38.75C24.4444 39.4375 24.9944 40 25.6667 40H42.7778C43.45 40 44 39.4375 44 38.75V23.75C44 23.0625 43.45 22.5 42.7778 22.5ZM13.4444 17.5H30.5556C31.2278 17.5 31.7778 16.9375 31.7778 16.25V1.25C31.7778 0.5625 31.2278 0 30.5556 0H24.4444V7.5L22 5.83594L19.5556 7.5V0H13.4444C12.7722 0 12.2222 0.5625 12.2222 1.25V16.25C12.2222 16.9375 12.7722 17.5 13.4444 17.5ZM18.3333 22.5H12.2222V30L9.77778 28.3359L7.33333 30V22.5H1.22222C0.55 22.5 0 23.0625 0 23.75V38.75C0 39.4375 0.55 40 1.22222 40H18.3333C19.0056 40 19.5556 39.4375 19.5556 38.75V23.75C19.5556 23.0625 19.0056 22.5 18.3333 22.5Z" fill="#D9D9D9"/>
</svg>
